<svg width="100" height="100" viewBox="0 0 100 100" fill="none" xmlns="http://www.w3.org/2000/svg">
	<rect width="100" height="100" rx="25" fill="white" />
	<rect width="100" height="100" rx="25" fill="white" />
	<mask id="mask0_340_2" style="mask-type:alpha" maskUnits="userSpaceOnUse" x="0" y="0" width="100" height="100">
		<rect width="100" height="100" fill="white" />
	</mask>
	<g mask="url(#mask0_340_2)">
		<path
			d="M87.7595 31.191C90.337 33.7684 90.337 37.9473 87.7595 40.5248L82.9512 45.3331C80.3737 47.9106 76.1948 47.9106 73.6174 45.3331L68.809 40.5248C66.2316 37.9473 66.2316 33.7684 68.809 31.191L73.6174 26.3826C76.1948 23.8052 80.3737 23.8052 82.9512 26.3826L87.7595 31.191Z"
			fill="#171717" />
		<path
			d="M87.7595 59.4752C90.337 62.0527 90.337 66.2316 87.7595 68.809L82.9512 73.6174C80.3737 76.1948 76.1948 76.1948 73.6174 73.6174L68.809 68.8091C66.2316 66.2316 66.2316 62.0527 68.809 59.4752L73.6174 54.6669C76.1948 52.0895 80.3737 52.0895 82.9512 54.6669L87.7595 59.4752Z"
			fill="#171717" />
		<path
			d="M31.191 31.191C33.7684 33.7684 33.7684 37.9473 31.191 40.5248L26.3826 45.3331C23.8052 47.9106 19.6263 47.9106 17.0488 45.3331L12.2405 40.5248C9.66303 37.9473 9.66303 33.7685 12.2405 31.191L17.0488 26.3827C19.6263 23.8052 23.8052 23.8052 26.3826 26.3827L31.191 31.191Z"
			fill="#171717" />
		<path
			d="M31.191 59.4753C33.7684 62.0527 33.7684 66.2316 31.191 68.8091L26.3826 73.6174C23.8052 76.1949 19.6263 76.1949 17.0488 73.6174L12.2405 68.8091C9.66304 66.2316 9.66304 62.0527 12.2405 59.4753L17.0488 54.6669C19.6263 52.0895 23.8052 52.0895 26.3826 54.6669L31.191 59.4753Z"
			fill="#171717" />
		<path
			d="M59.4752 54.6669C62.0527 52.0895 62.0527 47.9106 59.4752 45.3331L57.1418 42.9997C50.9899 36.8478 50.8485 35.0094 56.9296 28.9282L59.4752 26.3826C62.0527 23.8052 62.0527 19.6263 59.4752 17.0488L54.6669 12.2405C52.0894 9.66306 47.9105 9.66306 45.3331 12.2405L40.5248 17.0488C37.9473 19.6263 37.9473 23.8052 40.5248 26.3827L42.9289 28.7868C49.0808 34.9386 48.9393 36.9185 42.9289 42.929L40.5248 45.3331C37.9473 47.9106 37.9473 52.0895 40.5248 54.6669L45.3331 59.4753C47.9106 62.0527 52.0894 62.0527 54.6669 59.4752L59.4752 54.6669Z"
			fill="#171717" />
	</g>
</svg>